<?xml version="1.0" encoding="UTF-8" standalone="no"?>
<svg width="73px" height="73px" viewBox="0 0 73 73" version="1.1" xmlns="http://www.w3.org/2000/svg" xmlns:xlink="http://www.w3.org/1999/xlink" xmlns:sketch="http://www.bohemiancoding.com/sketch/ns">
    <!-- Generator: Sketch 3.3.3 (12081) - http://www.bohemiancoding.com/sketch -->
    <title>apple-logo</title>
    <desc>Created with Sketch.</desc>
    <defs></defs>
    <g id="Page-1" stroke="none" stroke-width="1" fill="none" fill-rule="evenodd" sketch:type="MSPage">
        <g id="apple-logo" sketch:type="MSArtboardGroup" fill="#000000">
            <path d="M47.1055431,11.5129519 C49.8885194,8.51619449 51.4065065,4.29540934 51.1535087,0.0746241978 C47.3585409,0.0746241978 42.9310785,2.31164032 40.1902685,5.56164489 C37.9976205,8.30515523 35.6784735,12.5259404 36.5217997,16.7889334 C40.4432664,17.2532197 44.6598972,14.7629565 47.1055431,11.5129519 L47.1055431,11.5129519 Z M50.8161782,17.7175061 C44.912895,17.7175061 39.6842728,20.9675107 36.9434628,20.9675107 C33.9918212,20.9675107 29.7751904,17.5486747 25.0103975,17.7175061 C18.8119502,17.8441297 13.1194986,21.5162127 9.87269285,26.9188177 C7.68004482,30.7597322 6.79455234,35.2759723 6.83671865,39.918836 C6.92105127,48.6980691 10.3786885,57.8571728 14.4266541,63.7240642 C17.546961,68.1558886 21.0467645,72.9253758 26.0223889,72.9253758 C30.4920176,72.9253758 32.1786699,69.9286183 37.9976205,69.9286183 C43.4370742,69.9286183 45.1658929,72.9253758 49.8885194,72.9253758 C54.8219775,72.9253758 58.1109495,68.4091357 61.0625911,63.9351034 C64.7732262,58.7013299 65.9960492,53.7208034 66.1647144,53.551972 C65.9960492,53.551972 56.6351287,49.7532654 56.2977983,38.9058475 C56.2977983,29.409081 64.0142327,25.146088 64.3093968,24.9350487 C60.1349323,18.4350396 53.3461567,17.7175061 50.8161782,17.7175061 L50.8161782,17.7175061 Z" id="-copy" sketch:type="MSShapeGroup"></path>
        </g>
    </g>
</svg>