<?xml version="1.0" encoding="utf-8"?>
<!-- Generator: Adobe Illustrator 26.5.0, SVG Export Plug-In . SVG Version: 6.00 Build 0)  -->
<svg version="1.1" id="Artwork" xmlns="http://www.w3.org/2000/svg" xmlns:xlink="http://www.w3.org/1999/xlink" x="0px" y="0px"
	 width="471.212px" height="83.47px" viewBox="0 0 471.212 83.47" style="enable-background:new 0 0 471.212 83.47;"
	 xml:space="preserve">
<style type="text/css">
	.st0{fill:#FFFFFF;}
</style>
<g>
	<g>
		<path class="st0" d="M75.612,17.86H88.18l10.635,46.89h0.22l12.305-46.89h10.811l12.305,46.89h0.22l10.679-46.89h12.524
			l-16.919,63.413h-11.733l-12.349-44.297h-0.264l-12.349,44.297H92.53L75.612,17.86z"/>
		<path class="st0" d="M160.229,17.86h12.568l10.635,46.89h0.22l12.305-46.89h10.811l12.305,46.89h0.22l10.679-46.89h12.523
			l-16.918,63.413h-11.734l-12.349-44.297h-0.264l-12.349,44.297h-11.733L160.229,17.86z"/>
		<path class="st0" d="M248.538,17.86h23.599c18.94,0,30.146,11.382,30.146,31.421v0.088c0,20.127-11.162,31.904-30.146,31.904
			h-23.599V17.86z M270.775,71.165c12.393,0,19.16-7.603,19.16-21.753v-0.088c0-13.799-6.943-21.357-19.16-21.357h-10.107v43.198
			H270.775z"/>
		<path class="st0" d="M307.843,49.544V49.5c0-20.347,11.602-32.739,29.927-32.739c14.897,0,25.752,9.36,27.246,22.456l0.044,0.439
			h-11.865l-0.176-0.791c-1.714-7.119-7.119-11.689-15.249-11.689c-10.723,0-17.578,8.569-17.578,22.324v0.044
			c0,13.799,6.899,22.412,17.578,22.412c7.91,0,13.447-4.351,15.381-12.041l0.088-0.439h11.865l-0.088,0.439
			c-1.45,13.228-12.349,22.456-27.246,22.456C319.401,82.371,307.843,69.891,307.843,49.544z"/>
		<path class="st0" d="M371.367,73.011l22.368-21.489c8.262-7.954,10.02-11.118,10.02-15.688v-0.088
			c0-5.493-4.175-9.404-10.107-9.404c-6.768,0-11.514,4.526-11.646,10.503l-0.044,0.352h-11.294v-0.352
			c0-11.733,9.844-20.083,22.896-20.083c13.008,0,22.017,7.69,22.017,18.281v0.088c0,7.559-3.56,12.568-14.634,23.071L387.276,70.99
			v0.483h29.268v9.8h-45.176V73.011z"/>
		<path class="st0" d="M421.96,64.134l-0.044-0.571h11.602l0.044,0.483c0.571,4.922,5.361,8.481,12.568,8.481
			c7.119,0,11.777-3.867,11.777-9.404v-0.088c0-6.416-4.746-9.976-12.656-9.976h-7.427v-8.877h7.207
			c6.855,0,11.382-3.735,11.382-9.141v-0.088c0-5.493-3.823-8.701-10.371-8.701c-6.504,0-10.942,3.34-11.514,8.613l-0.044,0.396
			h-11.162l0.044-0.527c0.923-10.811,9.668-17.974,22.676-17.974c13.271,0,21.885,6.68,21.885,16.611v0.088
			c0,7.866-5.713,13.096-13.271,14.634v0.264c9.404,0.879,15.557,6.372,15.557,15.073v0.088c0,11.162-9.712,18.853-24.082,18.853
			C432.068,82.371,422.839,74.857,421.96,64.134z"/>
	</g>
	<g>
		<path class="st0" d="M49.89,19.925c-6.79-0.502-12.55,3.792-15.764,3.792c-3.26,0-8.287-3.684-13.618-3.583
			C13.51,20.237,7.059,24.207,3.45,30.474c-7.27,12.618-1.856,31.316,5.225,41.555c3.464,5.003,7.595,10.641,13.021,10.436
			c5.223-0.206,7.199-3.378,13.512-3.378c6.309,0,8.089,3.378,13.612,3.277c5.622-0.104,9.183-5.107,12.622-10.138
			c3.979-5.807,5.614-11.43,5.711-11.727c-0.124-0.047-10.958-4.204-11.067-16.686c-0.098-10.436,8.518-15.452,8.91-15.693
			C60.105,20.917,52.551,20.122,49.89,19.925z"/>
		<path class="st0" d="M45.701,13.166C48.584,9.681,50.525,4.827,49.99,0c-4.15,0.165-9.17,2.764-12.146,6.247
			c-2.666,3.085-5.007,8.027-4.371,12.755C38.099,19.36,42.82,16.653,45.701,13.166z"/>
	</g>
</g>
</svg>
